External Loads File
version=1
nRows=31
nColumns=13
Range=5.000000e-03-10 seconds
endheader
time 	forceRightX 	forceRightY 	forceRightZ 	pointRightX 	pointRightY 	pointRightZ 	forceLeftX 	forceLeftY 	forceLeftZ 	pointLeftX 	pointLeftY 	pointLeftZ 		
5.005000 431.036487 785.933637 -0.000000 0.255560 0.134336 -0.137511 -91.009019 28.865409 -0.000000 0.361790 0.471519 -0.370728
5.010000 404.055388 703.741501 -0.000000 0.246829 0.136046 -0.137822 -99.791845 33.115805 -0.000000 0.371432 0.470126 -0.370480
5.015000 372.490613 620.291465 -0.000000 0.238362 0.138260 -0.138123 -108.630713 36.602207 -0.000000 0.381012 0.468380 -0.370108
5.020000 337.254449 537.206295 -0.000000 0.230128 0.141113 -0.138363 -117.277831 39.330704 -0.000000 0.390119 0.465865 -0.369594
5.025000 299.537856 455.960394 -0.000000 0.222310 0.144591 -0.138585 -125.498878 41.455355 -0.000000 0.398952 0.462685 -0.369048
5.030000 260.112383 378.296460 -0.000000 0.214945 0.148517 -0.138798 -133.164967 43.109204 -0.000000 0.407383 0.459069 -0.368545
5.035000 220.670746 305.276685 -0.000000 0.207781 0.153038 -0.139066 -140.131101 44.802903 -0.000000 0.415564 0.454842 -0.368164
5.040000 181.646853 238.672153 -0.000000 0.201189 0.157900 -0.139213 -146.482642 46.656205 -0.000000 0.423146 0.450010 -0.367690
5.045000 144.488237 179.258343 -0.000000 0.194947 0.163285 -0.139342 -152.259303 49.293418 -0.000000 0.430322 0.444633 -0.367441
5.050000 110.041786 127.858370 -0.000000 0.189188 0.168993 -0.139435 -157.683734 53.175814 -0.000000 0.436976 0.438592 -0.367175
5.055000 79.186797 84.782474 -0.000000 0.183877 0.175116 -0.139432 -163.028562 58.941989 -0.000000 0.443060 0.432054 -0.367079
5.060000 52.643447 49.876417 -0.000000 0.178937 0.181516 -0.139331 -168.540390 67.451218 -0.000000 0.448543 0.424620 -0.367025
5.065000 30.728778 22.712950 -0.000000 0.174443 0.188357 -0.138943 -174.552584 79.326287 -0.000000 0.453453 0.416983 -0.367046
5.070000 13.528159 2.445983 -0.000000 0.170439 0.195384 -0.138639 -181.247986 95.440107 -0.000000 0.457730 0.408615 -0.367183
5.075000 0.747743 -11.940174 -0.000000 0.166654 0.202849 -0.138512 -188.737889 116.589116 -0.000000 0.461292 0.399823 -0.367355
5.080000 -8.160132 -21.534033 -0.000000 0.163447 0.210842 -0.138423 -197.044494 143.505595 -0.000000 0.464405 0.390536 -0.367780
5.085000 -13.817506 -27.391484 -0.000000 0.160599 0.219049 -0.138317 -206.441961 176.402482 -0.000000 0.466646 0.381072 -0.367838
5.090000 -16.949254 -30.404512 -0.000000 0.157849 0.227745 -0.138940 -216.764608 215.886620 -0.000000 0.468196 0.371508 -0.367771
5.095000 -18.237606 -31.306535 -0.000000 0.155881 0.236842 -0.139018 -228.034612 262.026481 -0.000000 0.469010 0.361606 -0.367911
5.100000 -18.314092 -30.648677 -0.000000 0.154570 0.246161 -0.139094 -240.198923 314.691698 -0.000000 0.469165 0.351373 -0.368378
5.105000 -17.707764 -28.818991 -0.000000 0.153910 0.255596 -0.139099 -253.253673 373.455179 -0.000000 0.468837 0.340881 -0.368609
5.110000 -16.841785 -26.067114 -0.000000 0.153758 0.265331 -0.139167 -266.839624 437.973446 -0.000000 0.467830 0.330107 -0.368681
5.115000 -15.954632 -22.576891 -0.000000 0.154265 0.275353 -0.139123 -280.673649 507.669641 -0.000000 0.466332 0.319123 -0.368980
5.120000 -15.105120 -18.505214 -0.000000 0.155402 0.285394 -0.139070 -294.558210 581.579387 -0.000000 0.464444 0.307941 -0.369290
5.125000 -14.213139 -14.017103 -0.000000 0.157126 0.295381 -0.139026 -308.533265 658.253132 -0.000000 0.462129 0.296888 -0.369550
5.130000 -13.141677 -9.254051 -0.000000 0.159478 0.305396 -0.139055 -321.586950 736.741450 -0.000000 0.459338 0.285922 -0.369773
5.135000 -11.704703 -4.351417 -0.000000 0.162573 0.315285 -0.139074 -333.564548 816.062158 -0.000000 0.456146 0.275180 -0.369586
5.140000 -9.775794 0.620008 -0.000000 0.166041 0.325211 -0.138854 -343.198565 896.123201 -0.000000 0.452395 0.264648 -0.369634
5.145000 -7.346696 5.648006 -0.000000 0.170128 0.334781 -0.138733 -350.294595 976.557267 -0.000000 0.448104 0.254282 -0.369639
5.150000 -4.543151 10.853277 -0.000000 0.174896 0.344236 -0.138436 -352.887520 1057.510297 -0.000000 0.443289 0.244177 -0.369698
5.155000 -1.537988 16.462622 -0.000000 0.180249 0.353571 -0.138134 -349.435943 1138.581042 -0.000000 0.437856 0.234385 -0.369735
